# Blender v2.75 (sub 0) OBJ File: 'Hart.blend'
# www.blender.org
o Hart_Cube.002
v 0.379759 0.732744 -1.029219
v 1.124698 1.230987 -1.047459
v 1.095858 0.183807 -0.752960
v 1.091798 -0.126640 -0.597119
v 1.088136 -0.406698 -0.422286
v 1.085229 -0.628954 -0.275738
v 1.083363 -0.771651 -0.106768
v 1.542140 0.665063 -0.837429
v 1.670385 0.497289 -0.744417
v 1.786076 0.345939 -0.586041
v 1.877889 0.225826 -0.391191
v 1.936837 0.148709 -0.183406
v 1.657606 0.983022 -0.889533
v 1.861027 1.022259 -0.798601
v 2.044535 1.057655 -0.648203
v 2.190168 1.085746 -0.445816
v 1.618919 1.575342 -0.968637
v 1.817958 1.698483 -0.807790
v 1.996228 1.816127 -0.643322
v 2.137704 1.909491 -0.446837
v 1.318406 1.922990 -0.941823
v 1.491538 2.121475 -0.809181
v 1.647724 2.267739 -0.644999
v 1.771673 2.383814 -0.447336
v 1.851253 2.458339 -0.223846
v 1.119866 2.019736 -0.894965
v 1.122664 2.233686 -0.816556
v 1.125188 2.426694 -0.657086
v 1.127191 2.579865 -0.450788
v 0.417359 1.762489 -0.889308
v 0.422039 1.977128 -0.816475
v 0.426261 2.170758 -0.657309
v 0.429612 2.324423 -0.450915
v 0.431763 2.423081 -0.223297
v 0.364946 -0.641237 -0.530624
v 0.358108 -0.929167 -0.412174
v 0.351940 -1.084163 -0.328660
v 0.347045 -1.152218 -0.220723
v 2.283671 1.103781 -0.220216
v 2.228537 1.969434 -0.223831
v 1.128477 2.678207 -0.223278
v 0.343902 -1.161307 -0.068375
v 2.137704 1.909491 -0.475917
v 2.190168 1.085746 -0.474896
v -0.379759 0.732744 -1.029219
v -1.124698 1.230987 -1.047459
v 0.000000 0.411340 -0.973778
v -1.095858 0.183807 -0.752960
v -1.091798 -0.126640 -0.597119
v -1.088136 -0.406698 -0.422286
v -1.085229 -0.628954 -0.275738
v -1.083363 -0.771651 -0.106768
v -1.542140 0.665063 -0.837429
v -1.670385 0.497289 -0.744417
v -1.786076 0.345939 -0.586041
v -1.877889 0.225826 -0.391191
v -1.936837 0.148709 -0.183406
v -1.657606 0.983022 -0.889533
v -1.861027 1.022259 -0.798601
v -2.044535 1.057655 -0.648203
v -2.190168 1.085746 -0.445816
v -1.618919 1.575342 -0.968637
v -1.817958 1.698483 -0.807790
v -1.996228 1.816127 -0.643322
v -2.137704 1.909491 -0.446837
v -1.318406 1.922990 -0.941823
v -1.491538 2.121475 -0.809181
v -1.647724 2.267739 -0.644999
v -1.771673 2.383814 -0.447336
v -1.851253 2.458339 -0.223846
v -1.119866 2.019736 -0.894965
v -1.122664 2.233686 -0.816556
v -1.125188 2.426694 -0.657086
v -1.127191 2.579865 -0.450788
v -0.417359 1.762489 -0.889308
v -0.422039 1.977128 -0.816475
v -0.426261 2.170758 -0.657309
v -0.429612 2.324423 -0.450915
v -0.431763 2.423081 -0.223297
v -0.364946 -0.641237 -0.530624
v -0.358108 -0.929167 -0.412174
v -0.351940 -1.084163 -0.328660
v -0.347045 -1.152218 -0.220723
v 0.000000 1.303347 -0.810860
v 0.000000 1.512838 -0.762466
v 0.000000 1.701823 -0.650390
v 0.000000 1.851801 -0.467562
v 0.000000 1.948094 -0.227816
v 0.000000 -0.961105 -0.397872
v 0.000000 -1.263678 -0.058545
v 0.000000 -1.136894 -0.203562
v 0.000000 -1.093267 -0.259478
v -2.283671 1.103781 -0.220216
v -2.228537 1.969434 -0.223831
v -1.128477 2.678207 -0.223278
v -0.343902 -1.161307 -0.068375
v -2.137704 1.909491 -0.475917
v -2.190168 1.085746 -0.474896
v 1.957149 0.122136 0.000000
v 1.128920 2.712094 0.000000
v 0.432504 2.457077 0.000000
v 0.317655 -1.170706 0.000000
v 0.379759 0.732744 1.029219
v 1.124698 1.230987 1.047459
v 1.095858 0.183807 0.752960
v 1.082720 -0.820821 0.000000
v 1.091798 -0.126640 0.597119
v 1.088136 -0.406698 0.422286
v 1.085229 -0.628954 0.275738
v 1.083363 -0.771651 0.106768
v 1.542140 0.665063 0.837429
v 1.670385 0.497289 0.744417
v 1.786076 0.345939 0.586041
v 1.877889 0.225826 0.391191
v 1.936837 0.148709 0.183406
v 1.657606 0.983022 0.889533
v 2.315889 1.109996 0.000000
v 1.861027 1.022259 0.798601
v 2.044535 1.057655 0.648203
v 2.190168 1.085746 0.445816
v 1.618919 1.575342 0.968637
v 2.259836 1.990089 0.000000
v 1.817958 1.698483 0.807790
v 1.996228 1.816127 0.643322
v 2.137704 1.909491 0.446837
v 1.318406 1.922990 0.941823
v 1.878675 2.484019 0.000000
v 1.491538 2.121475 0.809181
v 1.647724 2.267739 0.644999
v 1.771673 2.383814 0.447336
v 1.851253 2.458339 0.223846
v 1.119866 2.019736 0.894965
v 1.122664 2.233686 0.816556
v 1.125188 2.426694 0.657086
v 1.127191 2.579865 0.450788
v 0.417359 1.762489 0.889308
v 0.422039 1.977128 0.816475
v 0.426261 2.170758 0.657309
v 0.429612 2.324423 0.450915
v 0.431763 2.423081 0.223297
v 0.364946 -0.641237 0.530624
v 0.358108 -0.929167 0.412174
v 0.351940 -1.084163 0.328660
v 0.347045 -1.152218 0.220723
v 2.283671 1.103781 0.220216
v 2.228537 1.969434 0.223831
v 1.128477 2.678207 0.223278
v 0.343902 -1.161307 0.068375
v 2.137704 1.909491 0.475917
v 2.190168 1.085746 0.474896
v 0.158828 -1.225282 0.000000
v -1.957149 0.122136 0.000000
v -1.128920 2.712094 0.000000
v -0.432504 2.457077 0.000000
v -0.317655 -1.170706 0.000000
v -0.379759 0.732744 1.029219
v -1.124698 1.230987 1.047459
v 0.000000 0.411340 0.973778
v -1.095858 0.183807 0.752960
v -1.082720 -0.820821 0.000000
v -1.091798 -0.126640 0.597119
v -1.088136 -0.406698 0.422286
v -1.085229 -0.628954 0.275738
v -1.083363 -0.771651 0.106768
v -1.542140 0.665063 0.837429
v -1.670385 0.497289 0.744417
v -1.786076 0.345939 0.586041
v -1.877889 0.225826 0.391191
v -1.936837 0.148709 0.183406
v -1.657606 0.983022 0.889533
v -2.315889 1.109996 0.000000
v -1.861027 1.022259 0.798601
v -2.044535 1.057655 0.648203
v -2.190168 1.085746 0.445816
v -1.618919 1.575342 0.968637
v -2.259836 1.990089 0.000000
v -1.817958 1.698483 0.807790
v -1.996228 1.816127 0.643322
v -2.137704 1.909491 0.446837
v -1.318406 1.922990 0.941823
v -1.878675 2.484019 0.000000
v -1.491538 2.121475 0.809181
v -1.647724 2.267739 0.644999
v -1.771673 2.383814 0.447336
v -1.851253 2.458339 0.223846
v -1.119866 2.019736 0.894965
v -1.122664 2.233686 0.816556
v -1.125188 2.426694 0.657086
v -1.127191 2.579865 0.450788
v -0.417359 1.762489 0.889308
v -0.422039 1.977128 0.816475
v -0.426261 2.170758 0.657309
v -0.429612 2.324423 0.450915
v -0.431763 2.423081 0.223297
v -0.364946 -0.641237 0.530624
v -0.358108 -0.929167 0.412174
v -0.351940 -1.084163 0.328660
v -0.347045 -1.152218 0.220723
v 0.000000 1.303347 0.810860
v 0.000000 1.981274 0.000000
v 0.000000 1.512838 0.762466
v 0.000000 1.701823 0.650390
v 0.000000 1.851801 0.467562
v 0.000000 1.948094 0.227816
v 0.000000 -1.323378 0.000000
v 0.000000 -0.961105 0.397872
v 0.000000 -1.263678 0.058545
v 0.000000 -1.136894 0.203562
v 0.000000 -1.093267 0.259478
v -2.283671 1.103781 0.220216
v -2.228537 1.969434 0.223831
v -1.128477 2.678207 0.223278
v -0.343902 -1.161307 0.068375
v -2.137704 1.909491 0.475917
v -2.190168 1.085746 0.474896
v -0.158828 -1.225282 0.000000
vn 0.174300 -0.353000 -0.919200
vn 0.127000 -0.397700 -0.908600
vn -0.077800 -0.080300 -0.993700
vn 0.048400 -0.037100 -0.998100
vn -0.250600 0.230900 -0.940100
vn -0.029300 0.300100 -0.953400
vn 0.132100 0.286700 -0.948900
vn 0.319300 0.099800 -0.942400
vn 0.252300 -0.278800 -0.926600
vn 0.353400 -0.157800 -0.922100
vn 0.000000 -0.481700 -0.876300
vn 0.000000 -0.224600 -0.974400
vn 0.000000 0.191400 -0.981500
vn 0.137900 -0.511700 -0.848000
vn 0.000000 -0.555500 -0.831500
vn 0.141100 -0.638500 -0.756500
vn 0.000000 -0.714600 -0.699500
vn 0.248100 -0.816200 -0.521700
vn 0.000000 -0.908800 -0.417200
vn 0.285700 -0.458400 -0.841500
vn 0.404900 -0.535000 -0.741500
vn 0.516000 -0.651800 -0.555800
vn 0.425900 -0.372800 -0.824400
vn 0.579200 -0.434200 -0.689900
vn 0.707100 -0.476800 -0.522200
vn 0.804800 -0.511500 -0.301100
vn 0.570400 -0.759100 -0.313700
vn 0.574700 -0.137000 -0.806800
vn 0.736200 -0.132300 -0.663700
vn 0.868100 -0.136500 -0.477300
vn 0.532500 0.188900 -0.825000
vn 0.662500 0.241900 -0.708900
vn 0.795300 0.296700 -0.528500
vn 0.303900 0.463800 -0.832200
vn 0.400800 0.583500 -0.706300
vn 0.481900 0.699400 -0.527800
vn -0.014600 0.536700 -0.843700
vn -0.016700 0.734000 -0.678900
vn -0.023300 0.869700 -0.493000
vn -0.352100 0.447500 -0.822000
vn -0.445900 0.644000 -0.621600
vn -0.502700 0.751400 -0.427300
vn 0.000000 0.364200 -0.931300
vn 0.000000 0.653800 -0.756600
vn 0.000000 0.846800 -0.531800
vn 0.000000 0.959400 -0.281900
vn -0.536000 0.812900 -0.227700
vn 0.847500 -0.530800 0.000000
vn 0.567600 -0.823300 0.000000
vn 0.000000 1.000000 0.000000
vn -0.547200 0.837000 0.000000
vn 0.400100 -0.894300 -0.200100
vn 0.955400 -0.137600 -0.261100
vn 0.894000 0.340000 -0.291600
vn 0.933500 0.358600 0.000000
vn 0.990600 -0.137000 0.000000
vn 0.546300 0.785200 -0.291500
vn 0.573600 0.819100 0.000000
vn -0.026100 0.962600 -0.269500
vn 0.434400 -0.900700 0.000000
vn -0.026700 0.999600 0.000000
vn 0.000000 -1.000000 0.000000
vn 0.433200 -0.901300 0.000000
vn -0.174300 -0.353000 -0.919200
vn -0.048400 -0.037100 -0.998100
vn 0.077800 -0.080300 -0.993700
vn -0.127000 -0.397700 -0.908600
vn 0.029300 0.300100 -0.953400
vn 0.250600 0.230900 -0.940100
vn -0.132100 0.286700 -0.948900
vn -0.319300 0.099800 -0.942400
vn -0.252300 -0.278800 -0.926600
vn -0.353400 -0.157800 -0.922100
vn -0.137900 -0.511700 -0.848000
vn -0.141100 -0.638500 -0.756500
vn -0.248100 -0.816200 -0.521700
vn -0.285700 -0.458400 -0.841500
vn -0.404900 -0.535000 -0.741500
vn -0.516000 -0.651800 -0.555800
vn -0.425900 -0.372800 -0.824400
vn -0.579200 -0.434200 -0.689900
vn -0.707100 -0.476800 -0.522200
vn -0.570400 -0.759100 -0.313700
vn -0.804800 -0.511500 -0.301100
vn -0.574700 -0.137000 -0.806800
vn -0.736200 -0.132300 -0.663700
vn -0.868100 -0.136500 -0.477300
vn -0.532500 0.188900 -0.825000
vn -0.662500 0.241900 -0.708900
vn -0.795300 0.296700 -0.528500
vn -0.303900 0.463800 -0.832200
vn -0.400800 0.583500 -0.706300
vn -0.481900 0.699400 -0.527800
vn 0.014600 0.536700 -0.843700
vn 0.016700 0.734000 -0.678900
vn 0.023300 0.869700 -0.493000
vn 0.352100 0.447500 -0.822000
vn 0.445900 0.644000 -0.621600
vn 0.502700 0.751400 -0.427300
vn 0.536000 0.812900 -0.227700
vn -0.567600 -0.823300 0.000000
vn -0.847500 -0.530800 0.000000
vn 0.547200 0.837000 0.000000
vn -0.400100 -0.894300 -0.200100
vn -0.955400 -0.137600 -0.261100
vn -0.894000 0.340000 -0.291600
vn -0.990600 -0.137000 0.000000
vn -0.933500 0.358600 0.000000
vn -0.546300 0.785200 -0.291500
vn -0.573600 0.819100 0.000000
vn 0.026100 0.962600 -0.269500
vn -0.434400 -0.900700 0.000000
vn 0.026700 0.999600 0.000000
vn -0.433200 -0.901300 0.000000
vn 0.174300 -0.353000 0.919200
vn 0.048400 -0.037100 0.998100
vn -0.077800 -0.080300 0.993700
vn 0.127000 -0.397700 0.908600
vn -0.029300 0.300100 0.953400
vn -0.250600 0.230900 0.940100
vn 0.132100 0.286700 0.948900
vn 0.319300 0.099800 0.942400
vn 0.252300 -0.278800 0.926600
vn 0.353400 -0.157800 0.922100
vn 0.000000 -0.224600 0.974400
vn 0.000000 -0.481700 0.876300
vn 0.000000 0.191400 0.981500
vn 0.000000 -0.555500 0.831500
vn 0.137900 -0.511700 0.848000
vn 0.000000 -0.714600 0.699500
vn 0.141100 -0.638500 0.756500
vn 0.000000 -0.908800 0.417200
vn 0.248100 -0.816200 0.521700
vn 0.285700 -0.458400 0.841500
vn 0.404900 -0.535000 0.741500
vn 0.516000 -0.651800 0.555800
vn 0.425900 -0.372800 0.824400
vn 0.579200 -0.434200 0.689900
vn 0.707100 -0.476800 0.522200
vn 0.570400 -0.759100 0.313700
vn 0.804800 -0.511500 0.301100
vn 0.574700 -0.137000 0.806800
vn 0.736200 -0.132300 0.663700
vn 0.868100 -0.136500 0.477300
vn 0.532500 0.188900 0.825000
vn 0.662500 0.241900 0.708900
vn 0.795300 0.296700 0.528500
vn 0.303900 0.463800 0.832200
vn 0.400800 0.583500 0.706300
vn 0.481900 0.699400 0.527800
vn -0.014600 0.536700 0.843700
vn -0.016700 0.734000 0.678900
vn -0.023300 0.869700 0.493000
vn -0.352100 0.447500 0.822000
vn -0.445900 0.644000 0.621600
vn -0.502700 0.751400 0.427300
vn 0.000000 0.364200 0.931300
vn 0.000000 0.653800 0.756600
vn 0.000000 0.846800 0.531800
vn -0.536000 0.812900 0.227700
vn 0.000000 0.959400 0.281900
vn 0.400100 -0.894300 0.200100
vn 0.955400 -0.137600 0.261100
vn 0.894000 0.340000 0.291600
vn 0.546300 0.785200 0.291500
vn -0.026100 0.962600 0.269500
vn -0.174300 -0.353000 0.919200
vn -0.127000 -0.397700 0.908600
vn 0.077800 -0.080300 0.993700
vn -0.048400 -0.037100 0.998100
vn 0.250600 0.230900 0.940100
vn 0.029300 0.300100 0.953400
vn -0.132100 0.286700 0.948900
vn -0.319300 0.099800 0.942400
vn -0.252300 -0.278800 0.926600
vn -0.353400 -0.157800 0.922100
vn -0.137900 -0.511700 0.848000
vn -0.141100 -0.638500 0.756500
vn -0.248100 -0.816200 0.521700
vn -0.285700 -0.458400 0.841500
vn -0.404900 -0.535000 0.741500
vn -0.516000 -0.651800 0.555800
vn -0.425900 -0.372800 0.824400
vn -0.579200 -0.434200 0.689900
vn -0.707100 -0.476800 0.522200
vn -0.804800 -0.511500 0.301100
vn -0.570400 -0.759100 0.313700
vn -0.574700 -0.137000 0.806800
vn -0.736200 -0.132300 0.663700
vn -0.868100 -0.136500 0.477300
vn -0.532500 0.188900 0.825000
vn -0.662500 0.241900 0.708900
vn -0.795300 0.296700 0.528500
vn -0.303900 0.463800 0.832200
vn -0.400800 0.583500 0.706300
vn -0.481900 0.699400 0.527800
vn 0.014600 0.536700 0.843700
vn 0.016700 0.734000 0.678900
vn 0.023300 0.869700 0.493000
vn 0.352100 0.447500 0.822000
vn 0.445900 0.644000 0.621600
vn 0.502700 0.751400 0.427300
vn 0.536000 0.812900 0.227700
vn -0.400100 -0.894300 0.200100
vn -0.955400 -0.137600 0.261100
vn -0.894000 0.340000 0.291600
vn -0.546300 0.785200 0.291500
vn 0.026100 0.962600 0.269500
s 1
f 3//1 35//2 1//3 2//4
f 2//4 1//3 30//5 26//6
f 21//7 17//8 2//4 26//6
f 8//9 2//4 17//8 13//10
f 35//2 89//11 47//12 1//3
f 1//3 47//12 84//13 30//5
f 3//1 2//4 8//9
f 35//2 36//14 92//15 89//11
f 36//14 37//16 91//17 92//15
f 37//16 38//18 90//19 91//17
f 3//1 4//20 36//14 35//2
f 4//20 5//21 37//16 36//14
f 5//21 6//22 38//18 37//16
f 8//9 9//23 4//20 3//1
f 9//23 10//24 5//21 4//20
f 10//24 11//25 6//22 5//21
f 11//25 12//26 7//27 6//22
f 13//10 14//28 9//23 8//9
f 14//28 15//29 10//24 9//23
f 15//29 16//30 11//25 10//24
f 17//8 18//31 14//28 13//10
f 18//31 19//32 15//29 14//28
f 19//32 20//33 16//30 15//29
f 21//7 22//34 18//31 17//8
f 22//34 23//35 19//32 18//31
f 23//35 24//36 20//33 19//32
f 26//6 27//37 22//34 21//7
f 27//37 28//38 23//35 22//34
f 28//38 29//39 24//36 23//35
f 30//5 31//40 27//37 26//6
f 31//40 32//41 28//38 27//37
f 32//41 33//42 29//39 28//38
f 84//13 85//43 31//40 30//5
f 85//43 86//44 32//41 31//40
f 86//44 87//45 33//42 32//41
f 87//45 88//46 34//47 33//42
f 12//26 99//48 106//49 7//27
f 88//46 200//50 101//51 34//47
f 6//22 7//27 42//52 38//18
f 16//30 39//53 12//26 11//25
f 20//33 40//54 39//53 16//30
f 40//54 122//55 117//56 39//53
f 24//36 25//57 40//54 20//33
f 25//57 127//58 122//55 40//54
f 29//39 41//59 25//57 24//36
f 33//42 34//47 41//59 29//39
f 7//27 106//49 102//60 42//52
f 39//53 117//56 99//48 12//26
f 41//59 100//61 127//58 25//57
f 34//47 101//51 100//61 41//59
f 38//18 42//52 205//62 90//19
f 42//52 102//60 151//63 205//62
f 48//64 46//65 45//66 80//67
f 46//65 71//68 75//69 45//66
f 66//70 71//68 46//65 62//71
f 53//72 58//73 62//71 46//65
f 80//67 45//66 47//12 89//11
f 45//66 75//69 84//13 47//12
f 48//64 53//72 46//65
f 80//67 89//11 92//15 81//74
f 81//74 92//15 91//17 82//75
f 82//75 91//17 90//19 83//76
f 48//64 80//67 81//74 49//77
f 49//77 81//74 82//75 50//78
f 50//78 82//75 83//76 51//79
f 53//72 48//64 49//77 54//80
f 54//80 49//77 50//78 55//81
f 55//81 50//78 51//79 56//82
f 56//82 51//79 52//83 57//84
f 58//73 53//72 54//80 59//85
f 59//85 54//80 55//81 60//86
f 60//86 55//81 56//82 61//87
f 62//71 58//73 59//85 63//88
f 63//88 59//85 60//86 64//89
f 64//89 60//86 61//87 65//90
f 66//70 62//71 63//88 67//91
f 67//91 63//88 64//89 68//92
f 68//92 64//89 65//90 69//93
f 71//68 66//70 67//91 72//94
f 72//94 67//91 68//92 73//95
f 73//95 68//92 69//93 74//96
f 75//69 71//68 72//94 76//97
f 76//97 72//94 73//95 77//98
f 77//98 73//95 74//96 78//99
f 84//13 75//69 76//97 85//43
f 85//43 76//97 77//98 86//44
f 86//44 77//98 78//99 87//45
f 87//45 78//99 79//100 88//46
f 57//84 52//83 160//101 152//102
f 88//46 79//100 154//103 200//50
f 51//79 83//76 96//104 52//83
f 61//87 56//82 57//84 93//105
f 65//90 61//87 93//105 94//106
f 94//106 93//105 171//107 176//108
f 69//93 65//90 94//106 70//109
f 70//109 94//106 176//108 181//110
f 74//96 69//93 70//109 95//111
f 78//99 74//96 95//111 79//100
f 52//83 96//104 155//112 160//101
f 93//105 57//84 152//102 171//107
f 95//111 70//109 181//110 153//113
f 79//100 95//111 153//113 154//103
f 83//76 90//19 205//62 96//104
f 96//104 205//62 216//114 155//112
f 105//115 104//116 103//117 141//118
f 104//116 132//119 136//120 103//117
f 126//121 132//119 104//116 121//122
f 111//123 116//124 121//122 104//116
f 141//118 103//117 158//125 206//126
f 103//117 136//120 199//127 158//125
f 105//115 111//123 104//116
f 141//118 206//126 209//128 142//129
f 142//129 209//128 208//130 143//131
f 143//131 208//130 207//132 144//133
f 105//115 141//118 142//129 107//134
f 107//134 142//129 143//131 108//135
f 108//135 143//131 144//133 109//136
f 111//123 105//115 107//134 112//137
f 112//137 107//134 108//135 113//138
f 113//138 108//135 109//136 114//139
f 114//139 109//136 110//140 115//141
f 116//124 111//123 112//137 118//142
f 118//142 112//137 113//138 119//143
f 119//143 113//138 114//139 120//144
f 121//122 116//124 118//142 123//145
f 123//145 118//142 119//143 124//146
f 124//146 119//143 120//144 125//147
f 126//121 121//122 123//145 128//148
f 128//148 123//145 124//146 129//149
f 129//149 124//146 125//147 130//150
f 132//119 126//121 128//148 133//151
f 133//151 128//148 129//149 134//152
f 134//152 129//149 130//150 135//153
f 136//120 132//119 133//151 137//154
f 137//154 133//151 134//152 138//155
f 138//155 134//152 135//153 139//156
f 199//127 136//120 137//154 201//157
f 201//157 137//154 138//155 202//158
f 202//158 138//155 139//156 203//159
f 203//159 139//156 140//160 204//161
f 115//141 110//140 106//49 99//48
f 204//161 140//160 101//51 200//50
f 109//136 144//133 148//162 110//140
f 120//144 114//139 115//141 145//163
f 125//147 120//144 145//163 146//164
f 146//164 145//163 117//56 122//55
f 130//150 125//147 146//164 131//165
f 131//165 146//164 122//55 127//58
f 135//153 130//150 131//165 147//166
f 139//156 135//153 147//166 140//160
f 110//140 148//162 102//60 106//49
f 145//163 115//141 99//48 117//56
f 147//166 131//165 127//58 100//61
f 140//160 147//166 100//61 101//51
f 144//133 207//132 205//62 148//162
f 148//162 205//62 151//63 102//60
f 159//167 195//168 156//169 157//170
f 157//170 156//169 190//171 186//172
f 180//173 175//174 157//170 186//172
f 165//175 157//170 175//174 170//176
f 195//168 206//126 158//125 156//169
f 156//169 158//125 199//127 190//171
f 159//167 157//170 165//175
f 195//168 196//177 209//128 206//126
f 196//177 197//178 208//130 209//128
f 197//178 198//179 207//132 208//130
f 159//167 161//180 196//177 195//168
f 161//180 162//181 197//178 196//177
f 162//181 163//182 198//179 197//178
f 165//175 166//183 161//180 159//167
f 166//183 167//184 162//181 161//180
f 167//184 168//185 163//182 162//181
f 168//185 169//186 164//187 163//182
f 170//176 172//188 166//183 165//175
f 172//188 173//189 167//184 166//183
f 173//189 174//190 168//185 167//184
f 175//174 177//191 172//188 170//176
f 177//191 178//192 173//189 172//188
f 178//192 179//193 174//190 173//189
f 180//173 182//194 177//191 175//174
f 182//194 183//195 178//192 177//191
f 183//195 184//196 179//193 178//192
f 186//172 187//197 182//194 180//173
f 187//197 188//198 183//195 182//194
f 188//198 189//199 184//196 183//195
f 190//171 191//200 187//197 186//172
f 191//200 192//201 188//198 187//197
f 192//201 193//202 189//199 188//198
f 199//127 201//157 191//200 190//171
f 201//157 202//158 192//201 191//200
f 202//158 203//159 193//202 192//201
f 203//159 204//161 194//203 193//202
f 169//186 152//102 160//101 164//187
f 204//161 200//50 154//103 194//203
f 163//182 164//187 213//204 198//179
f 174//190 210//205 169//186 168//185
f 179//193 211//206 210//205 174//190
f 211//206 176//108 171//107 210//205
f 184//196 185//207 211//206 179//193
f 185//207 181//110 176//108 211//206
f 189//199 212//208 185//207 184//196
f 193//202 194//203 212//208 189//199
f 164//187 160//101 155//112 213//204
f 210//205 171//107 152//102 169//186
f 212//208 153//113 181//110 185//207
f 194//203 154//103 153//113 212//208
f 198//179 213//204 205//62 207//132
f 213//204 155//112 216//114 205//62
